<mxfile host="Electron" modified="2023-06-01T20:36:35.544Z" agent="Mozilla/5.0 (Windows NT 10.0; Win64; x64) AppleWebKit/537.36 (KHTML, like Gecko) draw.io/21.2.8 Chrome/112.0.5615.165 Electron/24.2.0 Safari/537.36" etag="5c-6LQOcMs3-ZcpDhS6b" version="21.2.8" type="device">
  <diagram id="C5RBs43oDa-KdzZeNtuy" name="Page-1">
    <mxGraphModel dx="1748" dy="444" grid="1" gridSize="10" guides="1" tooltips="1" connect="1" arrows="1" fold="1" page="1" pageScale="1" pageWidth="827" pageHeight="1169" math="0" shadow="0">
      <root>
        <mxCell id="WIyWlLk6GJQsqaUBKTNV-0" />
        <mxCell id="WIyWlLk6GJQsqaUBKTNV-1" parent="WIyWlLk6GJQsqaUBKTNV-0" />
        <mxCell id="ojLQpIZAiHPLuuRDC7GJ-4" value="EquipoFutbol" style="swimlane;fontStyle=1;align=center;verticalAlign=top;childLayout=stackLayout;horizontal=1;startSize=26;horizontalStack=0;resizeParent=1;resizeParentMax=0;resizeLast=0;collapsible=1;marginBottom=0;whiteSpace=wrap;html=1;" vertex="1" parent="WIyWlLk6GJQsqaUBKTNV-1">
          <mxGeometry x="-210" y="210" width="430" height="378" as="geometry" />
        </mxCell>
        <mxCell id="ojLQpIZAiHPLuuRDC7GJ-5" value="- nombre: String" style="text;strokeColor=none;fillColor=none;align=left;verticalAlign=top;spacingLeft=4;spacingRight=4;overflow=hidden;rotatable=0;points=[[0,0.5],[1,0.5]];portConstraint=eastwest;whiteSpace=wrap;html=1;" vertex="1" parent="ojLQpIZAiHPLuuRDC7GJ-4">
          <mxGeometry y="26" width="430" height="26" as="geometry" />
        </mxCell>
        <mxCell id="ojLQpIZAiHPLuuRDC7GJ-21" value="- ciudad: String" style="text;strokeColor=none;fillColor=none;align=left;verticalAlign=top;spacingLeft=4;spacingRight=4;overflow=hidden;rotatable=0;points=[[0,0.5],[1,0.5]];portConstraint=eastwest;whiteSpace=wrap;html=1;" vertex="1" parent="ojLQpIZAiHPLuuRDC7GJ-4">
          <mxGeometry y="52" width="430" height="26" as="geometry" />
        </mxCell>
        <mxCell id="ojLQpIZAiHPLuuRDC7GJ-20" value="- jugadores: ArrayList&amp;lt;Jugador&amp;gt;" style="text;strokeColor=none;fillColor=none;align=left;verticalAlign=top;spacingLeft=4;spacingRight=4;overflow=hidden;rotatable=0;points=[[0,0.5],[1,0.5]];portConstraint=eastwest;whiteSpace=wrap;html=1;" vertex="1" parent="ojLQpIZAiHPLuuRDC7GJ-4">
          <mxGeometry y="78" width="430" height="26" as="geometry" />
        </mxCell>
        <mxCell id="ojLQpIZAiHPLuuRDC7GJ-6" value="" style="line;strokeWidth=1;fillColor=none;align=left;verticalAlign=middle;spacingTop=-1;spacingLeft=3;spacingRight=3;rotatable=0;labelPosition=right;points=[];portConstraint=eastwest;strokeColor=inherit;" vertex="1" parent="ojLQpIZAiHPLuuRDC7GJ-4">
          <mxGeometry y="104" width="430" height="8" as="geometry" />
        </mxCell>
        <mxCell id="ojLQpIZAiHPLuuRDC7GJ-7" value="+ EquipoFutbol(String nombre, String ciudad, ArrayList&amp;lt;Jugador&amp;gt; jugadores)" style="text;strokeColor=none;fillColor=none;align=left;verticalAlign=top;spacingLeft=4;spacingRight=4;overflow=hidden;rotatable=0;points=[[0,0.5],[1,0.5]];portConstraint=eastwest;whiteSpace=wrap;html=1;" vertex="1" parent="ojLQpIZAiHPLuuRDC7GJ-4">
          <mxGeometry y="112" width="430" height="28" as="geometry" />
        </mxCell>
        <mxCell id="ojLQpIZAiHPLuuRDC7GJ-22" value="+ agregarJugador(Jugador jugador):void" style="text;strokeColor=none;fillColor=none;align=left;verticalAlign=top;spacingLeft=4;spacingRight=4;overflow=hidden;rotatable=0;points=[[0,0.5],[1,0.5]];portConstraint=eastwest;whiteSpace=wrap;html=1;" vertex="1" parent="ojLQpIZAiHPLuuRDC7GJ-4">
          <mxGeometry y="140" width="430" height="30" as="geometry" />
        </mxCell>
        <mxCell id="ojLQpIZAiHPLuuRDC7GJ-23" value="+ mostrarInformacion: String" style="text;strokeColor=none;fillColor=none;align=left;verticalAlign=top;spacingLeft=4;spacingRight=4;overflow=hidden;rotatable=0;points=[[0,0.5],[1,0.5]];portConstraint=eastwest;whiteSpace=wrap;html=1;" vertex="1" parent="ojLQpIZAiHPLuuRDC7GJ-4">
          <mxGeometry y="170" width="430" height="26" as="geometry" />
        </mxCell>
        <mxCell id="ojLQpIZAiHPLuuRDC7GJ-24" value="+ getNombre(): String" style="text;strokeColor=none;fillColor=none;align=left;verticalAlign=top;spacingLeft=4;spacingRight=4;overflow=hidden;rotatable=0;points=[[0,0.5],[1,0.5]];portConstraint=eastwest;whiteSpace=wrap;html=1;" vertex="1" parent="ojLQpIZAiHPLuuRDC7GJ-4">
          <mxGeometry y="196" width="430" height="26" as="geometry" />
        </mxCell>
        <mxCell id="ojLQpIZAiHPLuuRDC7GJ-25" value="+ getCiudad(): String" style="text;strokeColor=none;fillColor=none;align=left;verticalAlign=top;spacingLeft=4;spacingRight=4;overflow=hidden;rotatable=0;points=[[0,0.5],[1,0.5]];portConstraint=eastwest;whiteSpace=wrap;html=1;" vertex="1" parent="ojLQpIZAiHPLuuRDC7GJ-4">
          <mxGeometry y="222" width="430" height="26" as="geometry" />
        </mxCell>
        <mxCell id="ojLQpIZAiHPLuuRDC7GJ-27" value="+ ArrayList&amp;lt;Jugador&amp;gt; getJugadores(): ArrayList&amp;lt;&amp;gt;" style="text;strokeColor=none;fillColor=none;align=left;verticalAlign=top;spacingLeft=4;spacingRight=4;overflow=hidden;rotatable=0;points=[[0,0.5],[1,0.5]];portConstraint=eastwest;whiteSpace=wrap;html=1;" vertex="1" parent="ojLQpIZAiHPLuuRDC7GJ-4">
          <mxGeometry y="248" width="430" height="26" as="geometry" />
        </mxCell>
        <mxCell id="ojLQpIZAiHPLuuRDC7GJ-28" value="+ setNombre(String nombre): void" style="text;strokeColor=none;fillColor=none;align=left;verticalAlign=top;spacingLeft=4;spacingRight=4;overflow=hidden;rotatable=0;points=[[0,0.5],[1,0.5]];portConstraint=eastwest;whiteSpace=wrap;html=1;" vertex="1" parent="ojLQpIZAiHPLuuRDC7GJ-4">
          <mxGeometry y="274" width="430" height="26" as="geometry" />
        </mxCell>
        <mxCell id="ojLQpIZAiHPLuuRDC7GJ-29" value="+ setCiudad(String ciudad): void" style="text;strokeColor=none;fillColor=none;align=left;verticalAlign=top;spacingLeft=4;spacingRight=4;overflow=hidden;rotatable=0;points=[[0,0.5],[1,0.5]];portConstraint=eastwest;whiteSpace=wrap;html=1;" vertex="1" parent="ojLQpIZAiHPLuuRDC7GJ-4">
          <mxGeometry y="300" width="430" height="26" as="geometry" />
        </mxCell>
        <mxCell id="ojLQpIZAiHPLuuRDC7GJ-26" value="+ setJugadores(ArrayList&amp;lt;Jugador&amp;gt;jugadores): void" style="text;strokeColor=none;fillColor=none;align=left;verticalAlign=top;spacingLeft=4;spacingRight=4;overflow=hidden;rotatable=0;points=[[0,0.5],[1,0.5]];portConstraint=eastwest;whiteSpace=wrap;html=1;" vertex="1" parent="ojLQpIZAiHPLuuRDC7GJ-4">
          <mxGeometry y="326" width="430" height="26" as="geometry" />
        </mxCell>
        <mxCell id="ojLQpIZAiHPLuuRDC7GJ-30" value="+ mostrarInformacion(): String" style="text;strokeColor=none;fillColor=none;align=left;verticalAlign=top;spacingLeft=4;spacingRight=4;overflow=hidden;rotatable=0;points=[[0,0.5],[1,0.5]];portConstraint=eastwest;whiteSpace=wrap;html=1;" vertex="1" parent="ojLQpIZAiHPLuuRDC7GJ-4">
          <mxGeometry y="352" width="430" height="26" as="geometry" />
        </mxCell>
        <mxCell id="ojLQpIZAiHPLuuRDC7GJ-8" value="Jugador" style="swimlane;fontStyle=1;align=center;verticalAlign=top;childLayout=stackLayout;horizontal=1;startSize=26;horizontalStack=0;resizeParent=1;resizeParentMax=0;resizeLast=0;collapsible=1;marginBottom=0;whiteSpace=wrap;html=1;" vertex="1" parent="WIyWlLk6GJQsqaUBKTNV-1">
          <mxGeometry x="350" y="210" width="230" height="220" as="geometry" />
        </mxCell>
        <mxCell id="ojLQpIZAiHPLuuRDC7GJ-9" value="- nombre: String" style="text;strokeColor=none;fillColor=none;align=left;verticalAlign=top;spacingLeft=4;spacingRight=4;overflow=hidden;rotatable=0;points=[[0,0.5],[1,0.5]];portConstraint=eastwest;whiteSpace=wrap;html=1;" vertex="1" parent="ojLQpIZAiHPLuuRDC7GJ-8">
          <mxGeometry y="26" width="230" height="26" as="geometry" />
        </mxCell>
        <mxCell id="ojLQpIZAiHPLuuRDC7GJ-12" value="- numero: int" style="text;strokeColor=none;fillColor=none;align=left;verticalAlign=top;spacingLeft=4;spacingRight=4;overflow=hidden;rotatable=0;points=[[0,0.5],[1,0.5]];portConstraint=eastwest;whiteSpace=wrap;html=1;" vertex="1" parent="ojLQpIZAiHPLuuRDC7GJ-8">
          <mxGeometry y="52" width="230" height="26" as="geometry" />
        </mxCell>
        <mxCell id="ojLQpIZAiHPLuuRDC7GJ-10" value="" style="line;strokeWidth=1;fillColor=none;align=left;verticalAlign=middle;spacingTop=-1;spacingLeft=3;spacingRight=3;rotatable=0;labelPosition=right;points=[];portConstraint=eastwest;strokeColor=inherit;" vertex="1" parent="ojLQpIZAiHPLuuRDC7GJ-8">
          <mxGeometry y="78" width="230" height="8" as="geometry" />
        </mxCell>
        <mxCell id="ojLQpIZAiHPLuuRDC7GJ-11" value="+ setNombre(String nombre): void" style="text;strokeColor=none;fillColor=none;align=left;verticalAlign=top;spacingLeft=4;spacingRight=4;overflow=hidden;rotatable=0;points=[[0,0.5],[1,0.5]];portConstraint=eastwest;whiteSpace=wrap;html=1;" vertex="1" parent="ojLQpIZAiHPLuuRDC7GJ-8">
          <mxGeometry y="86" width="230" height="26" as="geometry" />
        </mxCell>
        <mxCell id="ojLQpIZAiHPLuuRDC7GJ-13" value="+ setNumero(int numero): void" style="text;strokeColor=none;fillColor=none;align=left;verticalAlign=top;spacingLeft=4;spacingRight=4;overflow=hidden;rotatable=0;points=[[0,0.5],[1,0.5]];portConstraint=eastwest;whiteSpace=wrap;html=1;" vertex="1" parent="ojLQpIZAiHPLuuRDC7GJ-8">
          <mxGeometry y="112" width="230" height="26" as="geometry" />
        </mxCell>
        <mxCell id="ojLQpIZAiHPLuuRDC7GJ-14" value="+ getNombre(): String" style="text;strokeColor=none;fillColor=none;align=left;verticalAlign=top;spacingLeft=4;spacingRight=4;overflow=hidden;rotatable=0;points=[[0,0.5],[1,0.5]];portConstraint=eastwest;whiteSpace=wrap;html=1;" vertex="1" parent="ojLQpIZAiHPLuuRDC7GJ-8">
          <mxGeometry y="138" width="230" height="26" as="geometry" />
        </mxCell>
        <mxCell id="ojLQpIZAiHPLuuRDC7GJ-15" value="+ getNumero(): int" style="text;strokeColor=none;fillColor=none;align=left;verticalAlign=top;spacingLeft=4;spacingRight=4;overflow=hidden;rotatable=0;points=[[0,0.5],[1,0.5]];portConstraint=eastwest;whiteSpace=wrap;html=1;" vertex="1" parent="ojLQpIZAiHPLuuRDC7GJ-8">
          <mxGeometry y="164" width="230" height="26" as="geometry" />
        </mxCell>
        <mxCell id="ojLQpIZAiHPLuuRDC7GJ-16" value="+ mostrarDatos(): String" style="text;strokeColor=none;fillColor=none;align=left;verticalAlign=top;spacingLeft=4;spacingRight=4;overflow=hidden;rotatable=0;points=[[0,0.5],[1,0.5]];portConstraint=eastwest;whiteSpace=wrap;html=1;" vertex="1" parent="ojLQpIZAiHPLuuRDC7GJ-8">
          <mxGeometry y="190" width="230" height="30" as="geometry" />
        </mxCell>
        <mxCell id="ojLQpIZAiHPLuuRDC7GJ-19" value="" style="endArrow=diamondThin;endFill=0;endSize=24;html=1;rounded=0;exitX=0;exitY=0.154;exitDx=0;exitDy=0;exitPerimeter=0;" edge="1" parent="WIyWlLk6GJQsqaUBKTNV-1" source="ojLQpIZAiHPLuuRDC7GJ-11">
          <mxGeometry width="160" relative="1" as="geometry">
            <mxPoint x="220" y="420" as="sourcePoint" />
            <mxPoint x="220" y="300" as="targetPoint" />
          </mxGeometry>
        </mxCell>
      </root>
    </mxGraphModel>
  </diagram>
</mxfile>
